<?xml version="1.0" encoding="utf-8"?>
<!-- Generator: Adobe Illustrator 16.0.0, SVG Export Plug-In . SVG Version: 6.00 Build 0)  -->
<!DOCTYPE svg PUBLIC "-//W3C//DTD SVG 1.1//EN" "http://www.w3.org/Graphics/SVG/1.1/DTD/svg11.dtd">
<svg version="1.1" id="Layer_1" xmlns="http://www.w3.org/2000/svg" xmlns:xlink="http://www.w3.org/1999/xlink" x="0px" y="0px"
	 width="960px" height="181px" viewBox="0 0 960 181" enable-background="new 0 0 960 181" xml:space="preserve">
<path fill-rule="evenodd" clip-rule="evenodd" fill="#E1E2ED" d="M-4.772,180.064V46.039c0,0,316.95-61.076,605.119-42.535
	c280.274,18.033,361.145,21.669,361.145,21.669l1.604,155.693L-4.772,180.064z"/>
<path fill-rule="evenodd" clip-rule="evenodd" fill="#ECEDF4" d="M-4.772,180.064V25.173c0,0,379.548-27.37,667.717-8.828
	c280.273,18.033,298.546,25.682,298.546,25.682l1.604,138.84L-4.772,180.064z"/>
<path fill-rule="evenodd" clip-rule="evenodd" fill="#FEF8F2" d="M-4.772,180.064V33.199c0,0,165.269-7.306,453.437,11.235
	C728.94,62.467,959.886,74.931,959.886,74.931l3.21,105.936L-4.772,180.064z"/>
</svg>
